<?xml version="1.0" encoding="UTF-8"?>
<svg width="66px" height="66px" viewBox="0 0 66 66" version="1.1" xmlns="http://www.w3.org/2000/svg" xmlns:xlink="http://www.w3.org/1999/xlink">
    <title>40E23028-375E-468F-8F81-33118606D826</title>
    <g id="Page-1" stroke="none" stroke-width="1" fill="none" fill-rule="evenodd">
        <g id="Home-Page" transform="translate(-1230.000000, -2186.000000)">
            <g id="Piggy-bank,-Coin" transform="translate(1230.000000, 2186.000000)">
                <polygon id="Path" points="0 0 66 0 66 66 0 66"></polygon>
                <path d="M38.2175083,10.7824917 C41.9274972,14.4924807 41.9274972,20.5075193 38.2175083,24.2175083 C34.5075193,27.9274972 28.4924807,27.9274972 24.7824917,24.2175083 C21.0725028,20.5075193 21.0725028,14.4924807 24.7824917,10.7824917 C28.4924807,7.07250275 34.5075193,7.07250275 38.2175083,10.7824917" id="Path" stroke="#0000FF" stroke-width="3" stroke-linecap="round" stroke-linejoin="round"></path>
                <path d="M46.5975807,33.4024193 C46.651473,33.4563116 46.651473,33.5436884 46.5975807,33.5975807 C46.5436884,33.651473 46.4563116,33.651473 46.4024193,33.5975807 C46.348527,33.5436884 46.348527,33.4563116 46.4024193,33.4024193 C46.4563116,33.348527 46.5436884,33.348527 46.5975807,33.4024193" id="Path" stroke="#0000FF" stroke-width="3" stroke-linecap="round" stroke-linejoin="round"></path>
                <path d="M41.5,19.3479333 C42.4055556,19.1183333 43.275,18.7821333 44.0611111,18.2846667 C45.3416667,17.4728667 46.8611111,17 48.5,17 L51.2777778,17 L51.2777778,23.9809333 C53.2722222,25.7521333 54.8555556,27.9606667 55.7944444,30.489 L58.2222222,30.489 C59.7555556,30.489 61,31.7135333 61,33.2223333 L61,41.6 C61,43.1088 59.7555556,44.3333333 58.2222222,44.3333333 L54.5805556,44.3333333 C53.1222222,46.8152 51.0166667,48.8816 48.5,50.3220667 L48.5,55.2666667 C48.5,56.7754667 47.2555556,58 45.7222222,58 L40.1666667,58 C38.6333333,58 37.3888889,56.7754667 37.3888889,55.2666667 L37.3888889,52.5333333 L27.6666667,52.5333333 L27.6666667,54.9058667 C27.6666667,56.4146667 26.4222222,57.6392 24.8888889,57.6392 L19.3333333,57.6392 C17.8,57.6392 16.5555556,56.4146667 16.5555556,54.9058667 L16.5555556,48.3322 C13.1527778,45.331 11,40.985 11,36.1333333 C11,28.8954667 15.7722222,22.7646 22.3833333,20.5888667" id="Path" stroke="#0000FF" stroke-width="3" stroke-linecap="round" stroke-linejoin="round"></path>
                <path d="M6.2064,28 C4.8932,28.7441227 4,30.1151618 4,31.7015332 C4,34.0756388 5.9768,36 8.4156,36 L11,36" id="Path" stroke="#0000FF" stroke-width="3" stroke-linecap="round" stroke-linejoin="round"></path>
                <line x1="23" y1="27.5" x2="40" y2="27.5" id="Path" stroke="#0000FF" stroke-width="3" stroke-linecap="round" stroke-linejoin="round"></line>
            </g>
        </g>
    </g>
</svg>