<?xml version="1.0" encoding="utf-8"?><svg viewBox="0 0 67 67" xmlns="http://www.w3.org/2000/svg" xmlns:xlink="http://www.w3.org/1999/xlink"><style>:root>svg{display:none}:root>svg:target{display:block}</style><svg viewBox="0 0 67 67" id="check" xmlns="http://www.w3.org/2000/svg"><path fill-rule="evenodd" clip-rule="evenodd" d="M3.733 38.626L7.916 44.1l.903 6.814a8.44 8.44 0 007.252 7.259l6.833.913 5.47 4.179a8.44 8.44 0 0010.253 0l5.475-4.182h-.007l6.818-.903a8.44 8.44 0 007.26-7.252l.91-6.832c0 .004 2.114-2.765 4.183-5.47a8.443 8.443 0 000-10.252l-4.176-5.477-.903-6.814a8.44 8.44 0 00-7.253-7.26l-6.836-.909-5.47-4.179a8.44 8.44 0 00-10.253 0L22.9 7.914h.007l-6.818.906a8.44 8.44 0 00-7.26 7.252l-.913 6.832c0-.003-2.115 2.765-4.183 5.47a8.448 8.448 0 000 10.252z"/><path d="M43 28L30.505 41 23 33.199"/></svg><svg viewBox="0 0 38 14" id="whiteArrow" xmlns="http://www.w3.org/2000/svg"><path d="M31.335 0a.878.878 0 00-.32.057 1.804 1.804 0 00-.321.17.925.925 0 00-.35.621c-.038.264.04.51.233.735l3.692 4.468h-33a.964.964 0 00-.614.208l-.086.075a.912.912 0 00-.291.679c0 .263.097.49.291.678a.968.968 0 00.7.283H34.27l-3.693 4.468a.91.91 0 00-.242.623l.01.112a.925.925 0 00.349.622c.233.15.486.217.757.198a.81.81 0 00.641-.368l5.01-5.994a1.16 1.16 0 00.176-.622 1.16 1.16 0 00-.175-.623L32.093.396a.923.923 0 00-.321-.283.887.887 0 00-.437-.113z" fill-rule="nonzero"/></svg></svg>