<?xml version="1.0" encoding="UTF-8"?>
<svg width="330px" height="86px" viewBox="0 0 330 86" version="1.1" xmlns="http://www.w3.org/2000/svg" xmlns:xlink="http://www.w3.org/1999/xlink">
    <title>2ACDDF67-CE8D-4D99-9411-4BFCEFC0FF43</title>
    <defs>
        <polygon id="path-1" points="2.80201456e-05 0.251224462 117.634639 0.251224462 117.634639 84.8741188 2.80201456e-05 84.8741188"></polygon>
        <polygon id="path-3" points="0 84.7432024 330 84.7432024 330 0.996978852 0 0.996978852"></polygon>
    </defs>
    <g id="Page-1" stroke="none" stroke-width="1" fill="none" fill-rule="evenodd">
        <g id="Home-Page" transform="translate(-305.000000, -61.000000)">
            <g id="Group-24" transform="translate(305.000000, 61.000000)">
                <g id="Group-3">
                    <mask id="mask-2" fill="white">
                        <use xlink:href="#path-1"></use>
                    </mask>
                    <g id="Clip-2"></g>
                    <path d="M56.1679762,73.9600946 C58.6538852,71.4631622 62.6871693,71.4625789 65.1739496,73.9586363 C67.660149,76.4544021 67.6610204,80.5041517 65.175402,83.0010841 C62.6897836,85.4980165 58.656209,85.4985998 56.1694286,83.0028341 C53.6829387,80.5067767 53.6823578,76.4570271 56.1679762,73.9600946 M50.5112118,68.2262792 C48.0276267,70.7232116 43.9873711,70.7646278 41.503786,68.2674037 C39.0170057,65.7736796 39.0326915,61.7236383 41.5197623,59.2264143 C52.1056444,48.6069412 69.2757865,48.6069412 79.8488875,59.2264143 C82.3231773,61.7297633 86.3698234,61.7172217 88.8406275,59.1946229 C91.3308935,56.7230653 91.3085268,52.6826489 88.8214559,50.2046746 C73.2936752,34.5875451 48.062484,34.6228364 32.5347033,50.2204244 C25.0801718,57.6733054 13.026796,57.6636805 5.58853123,50.1950497 C-1.86919552,42.7421687 -1.8564145,30.6206279 5.58853123,23.1452889 C36.0282797,-7.37760257 85.3627369,-7.38372751 115.7807,23.1484972 C118.26748,25.6422213 118.245113,29.6954709 115.758333,32.1926949 C113.271262,34.6896274 109.294911,34.6514194 106.808131,32.154487 C81.313186,6.60358561 40.0238017,6.61000221 14.5863712,32.154487 C12.0995909,34.6321696 12.0644431,38.6825026 14.5544187,41.1540602 C17.0255132,43.676659 21.0875546,43.7052421 23.5618444,41.2018931 C44.066962,20.5844821 77.2952973,20.6037319 97.8068054,41.1858516 C105.251751,48.6611906 105.264532,60.7827315 97.8068054,68.2356124 C90.3682502,75.7045349 78.3244601,75.6917017 70.870219,68.2388207 C65.2515072,62.6228373 56.1456094,62.619629 50.5112118,68.2262792" id="Fill-1" fill="#0000FF" mask="url(#mask-2)"></path>
                </g>
                <path d="M145.549728,35.8906673 C138.782915,35.8906673 134.670286,32.3888959 134.592145,27.118383 L142.823234,27.118383 C142.823234,28.897124 144.087201,29.7162133 145.708635,29.7162133 C146.959772,29.7162133 148.145597,29.0908256 148.145597,27.8337648 C148.145597,26.4304279 146.266121,26.0301683 143.880767,25.6439078 C140.031137,25.0325192 134.927745,23.8940221 134.927745,17.993836 C134.927745,13.117583 139.168666,9.96978852 145.529901,9.96978852 C151.852066,9.96978852 155.949533,13.2650019 156.046918,18.1943943 L148.038882,18.1943943 C148.038882,16.6410672 146.973184,15.9188286 145.423769,15.9188286 C144.052795,15.9188286 143.132009,16.583928 143.132009,17.711283 C143.132009,19.095764 145.030729,19.4180287 147.389258,19.8300018 C151.310907,20.5125286 156.52568,21.3113336 156.52568,27.480645 C156.52568,32.5643131 152.146845,35.8912387 145.54827,35.8912387 L145.549728,35.8906673 Z" id="Fill-4" fill="#0000FF"></path>
                <path d="M160.513595,24.2936292 L160.513595,9.96978852 L168.877751,9.96978852 L168.877751,23.9178107 C168.877751,26.5671096 170.255759,28.1249139 172.490745,28.1249139 C174.72516,28.1249139 176.076932,26.5405813 176.076932,23.9178107 L176.076932,9.96978852 L184.441088,9.96978852 L184.441088,24.2936292 C184.441088,31.3165704 179.663403,35.8912387 172.490745,35.8912387 C165.317231,35.8912387 160.513595,31.3165704 160.513595,24.2936292" id="Fill-6" fill="#0000FF"></path>
                <path d="M208.614757,22.309821 C208.614757,19.0208442 206.226916,16.580939 202.97827,16.580939 C199.729625,16.580939 197.341784,19.0208442 197.341784,22.309821 C197.341784,25.5985039 199.729625,28.038703 202.97827,28.038703 C206.206808,28.038703 208.614757,25.5985039 208.614757,22.309821 M217.34139,22.310115 C217.34139,30.1096383 211.837676,35.6741743 204.138332,35.6741743 C201.861382,35.6741743 199.777233,35.0791186 198.00003,34.0118989 L198.00003,43.8670695 L189.425982,43.8670695 L189.425982,9.79336338 L195.32417,9.79336338 L196.4106,11.7819787 C198.481442,10.0018093 201.146065,8.97280967 204.138332,8.97280967 C211.837676,8.97280967 217.34139,14.5108857 217.34139,22.310115" id="Fill-8" fill="#0000FF"></path>
                <path d="M228.865115,20.2784303 L238.860833,20.2784303 C238.113688,17.8471873 236.332212,16.5352874 233.762067,16.5352874 C231.279907,16.5352874 229.554184,17.8620433 228.865115,20.2784303 L228.865115,20.2784303 Z M247.250465,22.7005311 C247.250465,23.4333324 247.18542,24.1661336 247.074786,24.9186476 L228.714989,24.9186476 C229.272226,27.709006 231.073448,29.1520387 233.762648,29.1520387 C235.752325,29.1520387 237.414165,28.2946756 238.233034,26.8704986 L246.707746,26.8704986 C244.968086,32.4226463 239.966016,35.8912387 233.762648,35.8912387 C226.047857,35.8912387 220.332326,30.3433764 220.332326,22.9116579 C220.332326,15.4536557 226.002268,9.96978852 233.762648,9.96978852 C241.732682,9.96978852 247.250755,15.5642187 247.250755,22.6996741 L247.250465,22.7005311 Z" id="Fill-10" fill="#0000FF"></path>
                <path d="M267.190332,10.9667674 L267.190332,18.7859809 L263.709699,18.7859809 C260.53565,18.7859809 259.206608,20.1126835 259.206608,23.2767847 L259.206608,35.8912387 L250.241692,35.8912387 L250.241692,11.0847548 L256.247443,11.0847548 L257.646177,13.8377938 C259.481709,11.8142373 261.717665,10.9667674 264.815297,10.9667674 L267.190332,10.9667674 Z" id="Fill-12" fill="#0000FF"></path>
                <mask id="mask-4" fill="white">
                    <use xlink:href="#path-3"></use>
                </mask>
                <g id="Clip-15"></g>
                <path d="M269.252817,7.40193234 L278.08796,7.40193234 L278.08796,0 L269.252817,0 L269.252817,7.40193234 Z M269.18429,35.8912387 L278.1571,35.8912387 L278.1571,10.5701533 L269.18429,10.5701533 L269.18429,35.8912387 Z" id="Fill-14" fill="#0000FF" mask="url(#mask-4)"></path>
                <path d="M296.102719,28.3643016 C299.229023,28.3643016 301.471494,26.1473035 301.471494,22.9312278 C301.471494,19.734008 299.229023,17.4978684 296.102719,17.4978684 C292.976123,17.4978684 290.733652,19.7148664 290.733652,22.9306564 C290.733652,26.1467321 292.976123,28.3637302 296.102719,28.3637302 L296.102719,28.3643016 Z M282.145015,22.9300851 C282.145015,15.3894346 287.985674,9.96978852 296.102719,9.96978852 C304.193159,9.96978852 310.060423,15.3894346 310.060423,22.9300851 C310.060423,30.4455943 304.193159,35.8912387 296.102719,35.8912387 C287.985674,35.8912387 282.145015,30.4455943 282.145015,22.9300851 L282.145015,22.9300851 Z" id="Fill-16" fill="#0000FF" mask="url(#mask-4)"></path>
                <path d="M330,10.9667674 L330,18.7859809 L326.519609,18.7859809 C323.345503,18.7859809 322.016437,20.1126835 322.016437,23.2767847 L322.016437,35.8912387 L313.05136,35.8912387 L313.05136,11.0847548 L319.057219,11.0847548 L320.455978,13.8377938 C322.291543,11.8142373 324.52754,10.9667674 327.625228,10.9667674 L330,10.9667674 Z" id="Fill-17" fill="#0000FF" mask="url(#mask-4)"></path>
                <polygon id="Fill-18" fill="#000000" mask="url(#mask-4)" points="185.438066 48.8519637 175.097183 82.7492447 166.964461 82.7492447 160.530943 66.3879484 154.221008 82.7492447 146.08886 82.7492447 135.589124 48.8519637 145.510511 48.8519637 150.950199 68.3889473 158.939266 49.0194865 162.136097 49.0194865 170.268532 68.4037288 175.599546 48.8519637"></polygon>
                <polygon id="Fill-19" fill="#000000" mask="url(#mask-4)" points="189.425982 82.7492447 198.398792 82.7492447 198.398792 62.8096677 189.425982 62.8096677"></polygon>
                <polygon id="Fill-20" fill="#000000" mask="url(#mask-4)" points="189.425982 57.8247734 198.398792 57.8247734 198.398792 48.8519637 189.425982 48.8519637"></polygon>
                <polygon id="Fill-21" fill="#000000" mask="url(#mask-4)" points="213.9592 57.3015032 213.9592 62.6970585 225.034115 62.6970585 225.034115 70.8706757 213.9592 70.8706757 213.9592 82.7492447 204.380665 82.7492447 204.380665 48.8519637 226.314199 48.8519637 226.314199 57.3015032"></polygon>
                <polygon id="Fill-22" fill="#000000" mask="url(#mask-4)" points="231.299094 82.7492447 240.271903 82.7492447 240.271903 62.8096677 231.299094 62.8096677"></polygon>
                <polygon id="Fill-23" fill="#000000" mask="url(#mask-4)" points="231.299094 57.8247734 240.271903 57.8247734 240.271903 48.8519637 231.299094 48.8519637"></polygon>
            </g>
        </g>
    </g>
</svg>