<?xml version="1.0" encoding="UTF-8"?>
<svg width="70px" height="70px" viewBox="0 0 70 70" version="1.1" xmlns="http://www.w3.org/2000/svg" xmlns:xlink="http://www.w3.org/1999/xlink">
    <title>5F9897C7-993D-4D87-81F4-EF424918DE5B</title>
    <g id="Page-1" stroke="none" stroke-width="1" fill="none" fill-rule="evenodd">
        <g id="Home-Page" transform="translate(-343.000000, -2182.000000)">
            <g id="calendar-schedule-star" transform="translate(343.000000, 2182.000000)">
                <g id="Group" stroke-linecap="round" stroke-linejoin="round" transform="translate(9.000000, 9.000000)" stroke="#0000FF" stroke-width="3">
                    <line x1="11.7777778" y1="11.7777778" x2="41.2222222" y2="11.7777778" id="Path"></line>
                    <path d="M26.5,38.7577222 L30.9284444,41.0838333 C31.7911667,41.5372778 32.7981667,40.8041111 32.6332778,39.8442222 L31.7882222,34.9122778 L35.3716111,31.4231111 C36.0694444,30.7429444 35.6837222,29.5592778 34.7208889,29.4179444 L29.7683333,28.6995 L27.5541111,24.2092222 C27.1242222,23.3347222 25.8757778,23.3347222 25.4458889,24.2092222 L23.2316667,28.6995 L18.2791111,29.4208889 C17.3162778,29.5592778 16.9305556,30.7458889 17.6283889,31.4260556 L21.2117778,34.9152222 L20.3667222,39.8471667 C20.2018333,40.8070556 21.2088333,41.5402222 22.0715556,41.0867778 L26.5,38.7577222" id="Path"></path>
                    <path d="M47.1111111,0.459333333 L5.88888889,0.459333333 C2.63527778,0.459333333 0,3.09461111 0,6.34822222 L0,47.1111111 C0,50.3647222 2.63527778,53 5.88888889,53 L47.1111111,53 C50.3647222,53 53,50.3647222 53,47.1111111 L53,6.34822222 C53,3.09461111 50.3647222,0.459333333 47.1111111,0.459333333 Z" id="Path"></path>
                </g>
                <polygon id="Path" points="0 0 70 0 70 70 0 70"></polygon>
            </g>
        </g>
    </g>
</svg>