<?xml version="1.0" encoding="UTF-8"?>
<svg width="1971px" height="1049px" viewBox="0 0 1971 1049" version="1.1" xmlns="http://www.w3.org/2000/svg" xmlns:xlink="http://www.w3.org/1999/xlink">
    <title>CBA8DF82-0EE0-4064-BD8F-47525B539EC8</title>
    <defs>
        <filter id="filter-1">
            <feColorMatrix in="SourceGraphic" type="matrix" values="0 0 0 0 0.000000 0 0 0 0 0.000000 0 0 0 0 1.000000 0 0 0 1.000000 0"></feColorMatrix>
        </filter>
        <linearGradient x1="19.2942856%" y1="23.4225605%" x2="50%" y2="76.5774395%" id="linearGradient-2">
            <stop stop-color="#D6F6D4" offset="0%"></stop>
            <stop stop-color="#E0F3E8" offset="100%"></stop>
        </linearGradient>
        <linearGradient x1="55.5873515%" y1="0.660796109%" x2="50%" y2="100%" id="linearGradient-3">
            <stop stop-color="#C8C8C8" offset="0%"></stop>
            <stop stop-color="#979797" offset="100%"></stop>
        </linearGradient>
        <linearGradient x1="50%" y1="0%" x2="50%" y2="100%" id="linearGradient-4">
            <stop stop-color="#B0FFE2" offset="0%"></stop>
            <stop stop-color="#35EDB8" offset="100%"></stop>
        </linearGradient>
    </defs>
    <g id="Page-1" stroke="none" stroke-width="1" fill="none" fill-rule="evenodd">
        <g id="Hero-back" transform="translate(1.000000, 129.000000)" filter="url(#filter-1)">
            <g transform="translate(0.000000, -129.000000)">
                <g id="Shape-2" fill-rule="nonzero">
                    <path d="M938.006988,81.0048309 C754.632371,187.493492 686.242657,299.547238 732.837847,417.16607 C802.730631,593.594318 947.549614,593.594318 980.1071,776.246802 C1012.66459,958.899285 1198.61966,992.309179 1347.42365,992.309179 C1496.22764,992.309179 2040.31758,969.424048 1960.71691,653.101449" id="Path-3" stroke="url(#linearGradient-2)"></path>
                    <path d="M685.020418,0.902010315 C603.992653,47.6065517 552.894062,116.021407 531.724646,206.146577 C499.970522,341.334331 778.640336,557.525275 738.126453,749.634189 C697.612571,941.743103 481.90352,1065.98448 282.619017,1045.73368 C149.762681,1032.23315 55.5952782,978.595906 0.116808384,884.821944" id="Path-4" stroke="url(#linearGradient-3)" opacity="0.157226562"></path>
                </g>
                <g id="Shape-1" transform="translate(209.000000, 227.000000)">
                    <ellipse id="Oval" stroke="#A4FAD4" stroke-width="2" fill-rule="nonzero" cx="1036.27161" cy="659.135522" rx="6.76711976" ry="6.76162074"></ellipse>
                    <ellipse id="Oval" stroke="#FFD959" stroke-width="2" fill="#FFFFFF" fill-rule="nonzero" cx="573.851756" cy="5.96295868" rx="5.41369581" ry="5.40929659"></ellipse>
                    <path d="M687.119895,229.734651 L692.651,229.740148 C693.479582,229.741705 694.229649,230.078344 694.77298,230.621675 C695.316311,231.165006 695.65295,231.915073 695.654506,232.742181 L695.654506,232.742181 L695.656755,238.272394 C695.658309,239.100191 695.323734,239.849762 694.78185,240.392529 C694.239538,240.935723 693.489649,241.271804 692.662623,241.272141 L692.662623,241.272141 L687.131518,241.266644 C686.302936,241.265087 685.552869,240.928448 685.009538,240.385117 C684.466207,239.841786 684.129568,239.091719 684.128012,238.264611 L684.128012,238.264611 L684.125763,232.734398 C684.124209,231.906601 684.458784,231.15703 685.000668,230.614263 C685.54298,230.071069 686.292869,229.734988 687.119895,229.734651 L687.119895,229.734651 Z" id="Rectangle" stroke="#F0A9FF" stroke-width="2" fill-rule="nonzero" transform="translate(689.891259, 235.503396) rotate(-45.000000) translate(-689.891259, -235.503396) "></path>
                    <path d="M126.802379,574.126534 L132.333484,574.132031 C133.162066,574.133588 133.912133,574.470227 134.455464,575.013558 C134.998795,575.556889 135.335434,576.306956 135.33699,577.134064 L135.33699,577.134064 L135.339239,582.664277 C135.340793,583.492074 135.006218,584.241645 134.464334,584.784412 C133.922021,585.327606 133.172133,585.663687 132.345107,585.664024 L132.345107,585.664024 L126.814002,585.658527 C125.98542,585.65697 125.235353,585.320331 124.692022,584.777 C124.148691,584.233669 123.812052,583.483602 123.810496,582.656494 L123.810496,582.656494 L123.808247,577.126281 C123.806693,576.298484 124.141268,575.548913 124.683152,575.006146 C125.225464,574.462952 125.975353,574.126871 126.802379,574.126534 L126.802379,574.126534 Z" id="Rectangle" stroke="#DFECF1" stroke-width="2" fill-rule="nonzero" transform="translate(129.573743, 579.895279) rotate(-45.000000) translate(-129.573743, -579.895279) "></path>
                    <text id="+" transform="translate(1304.700690, 653.130517) rotate(134.000000) translate(-1304.700690, -653.130517) " font-family="Asap-Medium, Asap" font-size="45" font-weight="400" fill="#DFECF1">
                        <tspan x="1293.8733" y="669.130517">+</tspan>
                    </text>
                    <path d="M401.515555,646.088789 L401.518955,654.451701 C401.519628,656.108555 402.86332,657.451155 404.520174,657.450481 C405.085545,657.450251 405.639344,657.290265 406.117739,656.988963 L412.752594,652.810205 C414.154558,651.927221 414.575275,650.074904 413.692291,648.672939 C413.453437,648.293696 413.132643,647.97279 412.753484,647.733803 L406.11523,643.54965 C404.713575,642.666173 402.861111,643.08624 401.977635,644.487895 C401.675532,644.967189 401.515325,645.522231 401.515555,646.088789 Z" id="Path-6" stroke="#8CE1F7" stroke-width="2" fill="#FFFFFF" fill-rule="nonzero" stroke-linecap="round" stroke-linejoin="round" transform="translate(409.147432, 650.266506) rotate(-45.000000) translate(-409.147432, -650.266506) "></path>
                    <path d="M763.051169,516.192855 L763.053767,522.583199 C763.054216,523.687768 763.95001,524.582835 765.054579,524.582386 C765.431493,524.582233 765.800693,524.475575 766.119623,524.274707 L771.189509,521.081596 C772.124152,520.49294 772.40463,519.258062 771.815974,518.323419 C771.656737,518.07059 771.442875,517.856653 771.190102,517.697328 L766.117619,514.500095 C765.183182,513.911111 763.948206,514.191155 763.359222,515.125592 C763.15782,515.445121 763.051016,515.815149 763.051169,516.192855 Z" id="Path-6" stroke="#DFECF1" stroke-width="2" fill="#FFFFFF" fill-rule="nonzero" stroke-linecap="round" stroke-linejoin="round" transform="translate(768.462577, 519.385534) rotate(-45.000000) translate(-768.462577, -519.385534) "></path>
                    <line x1="1.80456527" y1="288.063233" x2="10.8273916" y2="275.336439" id="Stroke-9" stroke="#FFB3C6" stroke-width="2.949" stroke-linecap="round" stroke-linejoin="round"></line>
                    <line x1="0" y1="276.427788" x2="13.5342395" y2="286.344832" id="Stroke-11" stroke="#FFB3C6" stroke-width="2.949" stroke-linecap="round" stroke-linejoin="round"></line>
                    <path d="M1015.97025,48.335782 C1007.48267,48.335782 1002.43601,48.335782 1002.43601,57.1931098 C1002.43601,66.0504375 1009.31782,73.5791661 1014.82328,73.5791661 C1020.32873,73.5791661 1029.50449,67.7413819 1029.50449,61.3600799 C1029.50449,54.9787778 1024.45782,48.335782 1015.97025,48.335782 Z" id="Path-9" fill="url(#linearGradient-4)" fill-rule="nonzero" opacity="0.600283668"></path>
                    <path d="M1195.44595,108.901165 C1204.16608,108.453367 1210.18016,108.680917 1213.48817,109.583814" id="Path-14" stroke="#FFB1EC" stroke-width="3" stroke-linecap="round" stroke-linejoin="round" fill-rule="nonzero" transform="translate(1204.467062, 109.131145) rotate(-30.000000) translate(-1204.467062, -109.131145) "></path>
                </g>
            </g>
        </g>
    </g>
</svg>