<svg width="67" height="67" viewBox="0 0 67 67" fill="none" xmlns="http://www.w3.org/2000/svg">
<path fill-rule="evenodd" clip-rule="evenodd" d="M3.73266 38.6256L7.91553 44.0995L8.81862 50.9138C9.31916 54.6937 12.2909 57.6686 16.0713 58.1726L22.9039 59.086L28.3749 63.2649C31.4027 65.5784 35.5995 65.5784 38.6273 63.2649L44.1018 59.0825H44.0948L50.9134 58.1796C54.6938 57.6791 57.669 54.7077 58.1731 50.9278L59.0832 44.096C59.0832 44.0995 61.1973 41.331 63.266 38.6256C65.5797 35.5982 65.5762 31.4018 63.266 28.3744L59.0902 22.897L58.1871 16.0827C57.6865 12.3028 54.7148 9.32792 50.9344 8.82394L44.0983 7.91396L38.6273 3.73508C35.5995 1.42164 31.4027 1.42164 28.3749 3.73508L22.9004 7.91396H22.9074L16.0888 8.82044C12.3084 9.32092 9.33316 12.2923 8.82912 16.0722L7.91553 22.904C7.91553 22.9005 5.80134 25.669 3.73266 28.3744C1.42245 31.3983 1.42245 35.5982 3.73266 38.6256V38.6256Z" stroke="#0000FF" stroke-width="3" stroke-linecap="round" stroke-linejoin="round"/>
<path d="M43 28L30.5054 41L23 33.1985" stroke="#0000FF" stroke-width="3" stroke-linecap="round" stroke-linejoin="round"/>
</svg>
