<svg width="1920" height="1378" viewBox="0 0 1920 1378" fill="none" xmlns="http://www.w3.org/2000/svg">
<path d="M1063.75 1199.51L1064.1 1199.16L1064.1 1199.16L1063.75 1199.51ZM916.782 1346.57L916.428 1346.92L916.428 1346.92L916.782 1346.57ZM677.413 1106.97L677.767 1106.61L677.766 1106.61L677.413 1106.97ZM677.674 959.958L677.32 959.604L677.32 959.604L677.674 959.958ZM1303.27 959.958L1303.63 959.605L1303.62 959.604L1303.27 959.958ZM1450.03 959.441L1449.68 959.085L1449.68 959.09L1450.03 959.441ZM1449.72 813.261L1449.37 813.614L1449.37 813.616L1449.72 813.261ZM531.022 813.517L531.375 813.871L531.376 813.87L531.022 813.517ZM91.214 813.104L91.5676 812.751L91.5668 812.75L91.214 813.104ZM91.214 373.266L90.8607 372.912L90.8604 372.912L91.214 373.266ZM1889.74 373.318L1889.39 373.671L1889.39 373.672L1889.74 373.318ZM1889.38 520.38L1889.73 520.733L1889.73 520.733L1889.38 520.38ZM1743.29 519.758L1743.65 519.405L1743.65 519.405L1743.29 519.758ZM238.074 519.758L238.427 520.113L238.428 520.112L238.074 519.758ZM237.553 666.095L237.909 665.744L237.904 665.739L237.553 666.095ZM384.57 666.872L384.216 666.519L384.215 666.52L384.57 666.872ZM1596.38 666.612L1596.73 666.258L1596.73 666.258L1596.38 666.612ZM1596.38 1106.45L1596.02 1106.1L1596.02 1106.1L1596.38 1106.45ZM1156.72 1106.5L1157.08 1106.15L1157.08 1106.15L1156.72 1106.5ZM917.112 1199.89C957.491 1159.48 1023 1159.47 1063.4 1199.86L1064.1 1199.16C1023.32 1158.37 957.174 1158.38 916.404 1199.18L917.112 1199.89ZM1063.4 1199.86C1103.78 1240.25 1103.8 1305.78 1063.42 1346.19L1064.13 1346.9C1104.89 1306.1 1104.88 1239.93 1064.1 1199.16L1063.4 1199.86ZM1063.42 1346.19C1023.05 1386.59 957.528 1386.6 917.135 1346.22L916.428 1346.92C957.212 1387.7 1023.36 1387.69 1064.13 1346.9L1063.42 1346.19ZM917.135 1346.22C876.747 1305.83 876.737 1240.29 917.112 1199.89L916.404 1199.18C875.64 1239.98 875.649 1306.14 916.428 1346.92L917.135 1346.22ZM824.076 1105.95C783.731 1146.35 718.104 1147.02 677.767 1106.61L677.059 1107.32C717.795 1148.13 784.056 1147.44 824.784 1106.65L824.076 1105.95ZM677.766 1106.61C637.375 1066.26 637.628 1000.72 678.027 960.311L677.32 959.604C636.533 1000.4 636.274 1066.58 677.06 1107.32L677.766 1106.61ZM678.027 960.311C850.612 787.83 1130.54 787.83 1302.92 960.311L1303.62 959.604C1130.86 786.732 850.295 786.732 677.32 959.604L678.027 960.311ZM1302.92 960.31C1343.5 1001.21 1409.87 1001.01 1450.39 959.791L1449.68 959.09C1409.54 999.911 1343.81 1000.11 1303.63 959.605L1302.92 960.31ZM1450.38 959.796C1491.23 919.41 1490.86 853.392 1450.07 812.906L1449.37 813.616C1489.77 853.715 1490.13 919.095 1449.68 959.085L1450.38 959.796ZM1450.07 812.908C1196.44 558.771 784.303 559.346 530.668 813.164L531.376 813.87C784.621 560.443 1196.12 559.87 1449.37 813.614L1450.07 812.908ZM530.669 813.163C409.194 934.155 212.778 933.998 91.5676 812.751L90.8604 813.458C212.461 935.096 409.509 935.252 531.375 813.871L530.669 813.163ZM91.5668 812.75C-29.9592 691.76 -29.7522 494.976 91.5676 373.619L90.8604 372.912C-30.8485 494.658 -31.0587 692.076 90.8612 813.459L91.5668 812.75ZM91.5674 373.619C588.202 -122.499 1393.11 -122.598 1889.39 373.671L1890.09 372.964C1393.42 -123.696 587.885 -123.596 90.8607 372.912L91.5674 373.619ZM1889.39 373.672C1929.78 414.023 1929.42 479.613 1889.02 520.026L1889.73 520.733C1930.51 479.935 1930.88 413.711 1890.09 372.964L1889.39 373.672ZM1889.02 520.026C1848.63 560.428 1784.04 559.814 1743.65 519.405L1742.94 520.112C1783.72 560.904 1848.94 561.533 1889.73 520.733L1889.02 520.026ZM1743.65 519.405C1327.33 103.743 653.099 103.847 237.721 519.405L238.428 520.112C653.415 104.945 1327.01 104.84 1742.94 520.112L1743.65 519.405ZM237.722 519.403C196.94 559.883 196.359 626.062 237.201 666.45L237.904 665.739C197.465 625.75 198.031 560.209 238.427 520.113L237.722 519.403ZM237.196 666.445C277.722 707.66 344.341 708.13 384.924 667.225L384.215 666.52C344.028 707.025 278.049 706.566 237.909 665.744L237.196 666.445ZM384.923 667.226C719.407 332.175 1261.43 332.488 1596.02 666.965L1596.73 666.258C1261.75 331.39 719.09 331.077 384.216 666.519L384.923 667.226ZM1596.02 666.965C1717.34 788.322 1717.55 985.106 1596.02 1106.1L1596.73 1106.8C1718.65 985.422 1718.44 788.004 1596.73 666.258L1596.02 666.965ZM1596.02 1106.1C1474.81 1227.35 1278.55 1227.14 1157.08 1106.15L1156.37 1106.86C1278.23 1228.24 1475.12 1228.45 1596.73 1106.8L1596.02 1106.1ZM1157.08 1106.15C1065.17 1014.64 916.236 1014.58 824.078 1105.94L824.782 1106.65C916.55 1015.68 1064.86 1015.73 1156.37 1106.86L1157.08 1106.15Z" fill="#E2F3FF"/>
</svg>
